<?xml version="1.0" standalone="no"?><!DOCTYPE svg PUBLIC "-//W3C//DTD SVG 1.1//EN" "http://www.w3.org/Graphics/SVG/1.1/DTD/svg11.dtd"><svg t="1574922596517" class="icon" viewBox="0 0 1024 1024" version="1.1" xmlns="http://www.w3.org/2000/svg" p-id="2090" xmlns:xlink="http://www.w3.org/1999/xlink" width="200" height="200"><defs><style type="text/css"></style></defs><path d="M522.695 2.004c-26.328 0.155-47.409 21.476-47.676 48.729-0.257 26.485-0.055 52.974-0.05 79.461 0.004 27.256-0.366 54.518 0.11 81.764 0.474 27.068 22.02 47.142 49.348 46.906 26.218-0.226 47.58-21.01 47.72-47.448 0.29-53.743 0.312-107.487-0.023-161.227-0.173-27.68-21.87-48.346-49.43-48.185M326.793 90.077c-8.325-14.2-21.646-21.261-38.304-21.344-35.143 0.011-56.58 36.964-38.987 68.179 25.967 46.074 52.392 91.892 78.987 137.609 12.958 22.276 40.047 29.326 61.818 16.884 21.313-12.182 29.678-38.962 17.389-60.85-26.455-47.117-53.572-93.864-80.903-140.478M98.085 324.612c44.324 25.791 88.79 51.335 133.2 76.98 6.717 3.877 13.685 6.905 21.69 6.407 20.138 0.155 35.974-11.937 41.324-31.547 4.988-18.277-2.687-36.75-20.245-46.999-44.619-26.047-89.355-51.89-134.104-77.711-22.53-13-47.819-7.027-59.831 13.9-12.204 21.26-4.972 45.624 17.966 58.97M132.246 560.579c26.402-0.012 52.806 0.205 79.205-0.076 23.402-0.25 39.153-16.414 38.792-39.135-0.343-21.605-16.908-37.37-39.572-37.393-51.658-0.053-103.313-0.058-154.97 0.044-24.169 0.048-40.72 15.973-40.573 38.687 0.145 22.154 16.58 37.741 40.207 37.854 25.637 0.125 51.273 0.03 76.911 0.019M283.95 660.79c-9.377-16.285-29.938-22.574-46.86-12.936-46.539 26.505-92.788 53.532-139.017 80.58-11.102 6.496-16.312 16.854-16.47 25.361 0.05 30.556 27.22 47.959 50.392 35.08 47.144-26.196 93.71-53.46 140.135-80.928 17.173-10.159 21.49-30.361 11.82-47.158M375.85 762.442c-14.276-4.056-27.646 1.453-35.88 15.671a24375.495 24375.495 0 0 0-77.274 134.463c-10.014 17.549-5.87 35.683 9.76 45.025 16.032 9.58 34.249 4.06 44.72-13.999 25.553-44.06 50.901-88.241 76.371-132.35 3.308-5.73 5.693-11.684 5.749-14.926 0.018-17.818-9.264-29.855-23.446-33.884M523.3 806.744c-16.404 0.09-27.34 11.912-27.45 30.163-0.154 25.348-0.04 50.698-0.04 76.049h-0.07c0 26.116-0.134 52.236 0.046 78.352 0.124 18.272 11.055 30.073 27.446 30.21 16.944 0.138 28.06-11.825 28.104-30.743 0.117-51.08 0.135-102.164 0.07-153.247-0.022-18.787-11.227-30.876-28.105-30.784M700.484 780.628c-7.479-12.823-21.904-16.024-33.786-8.877-11.458 6.894-15.558 20.625-8.514 33.023 26.278 46.257 52.916 92.306 79.61 138.322 4.513 7.777 11.658 11.965 20.924 11.822 18.558-0.139 30.524-19.329 21.229-35.888-26.041-46.387-52.663-92.45-79.463-138.402M940.424 739.44a79664.678 79664.678 0 0 0-135.94-78.637c-4.706-2.716-9.744-4.34-15.36-2.96-9.123 2.239-14.943 8.034-16.512 17.098-1.884 10.874 3.844 18.207 12.89 23.424 29.79 17.182 59.559 34.395 89.34 51.59 15.224 8.79 30.236 17.976 45.743 26.232 14.672 7.811 31.04-2.034 31.056-18.035-0.07-8.438-4.095-14.584-11.217-18.713M989.291 504.807c-24.87-0.092-49.739-0.025-74.61-0.025v-0.053c-25.252 0-50.506-0.072-75.757 0.03-13.45 0.05-20.964 6.333-21.164 17.287-0.202 11.133 7.07 17.521 20.66 17.551 50.505 0.113 101.01 0.134 151.516 0.074 13.36-0.014 21.172-6.474 21.384-17.133 0.214-10.847-8.113-17.678-22.029-17.73M801.34 377.645a74243.83 74243.83 0 0 0 135.165-78.22c4.863-2.823 8.24-6.855 8.122-12.945-0.124-11.033-11.184-17.42-21.48-11.527C877.632 301 832.29 327.342 787 353.776c-7.66 4.47-10.518 11.52-5.572 19.557 4.835 7.855 12.086 8.83 19.912 4.312M679.047 262.542c5.183-0.247 8.187-3.411 10.594-7.652 4.915-8.66 10.025-17.207 14.994-25.837 20.45-35.519 40.921-71.023 61.282-106.592 5.084-8.88 3.025-16.663-4.766-18.531-7.674-1.84-10.907 3.69-14.053 9.16-22.924 39.838-45.87 79.667-68.787 119.512-2.864 4.98-6.02 9.852-8.295 15.1-3.126 7.197 1.67 14.648 9.031 14.84" p-id="2091" fill="#8a8a8a"></path></svg>