<?xml version="1.0" encoding="UTF-8"?>
<svg width="30px" height="30px" viewBox="0 0 30 30" version="1.1" xmlns="http://www.w3.org/2000/svg" xmlns:xlink="http://www.w3.org/1999/xlink">
    <!-- Generator: Sketch 58 (84663) - https://sketch.com -->
    <title>icon_close</title>
    <desc>Created with Sketch.</desc>
    <defs>
        <rect id="path-1" x="0" y="0" width="30" height="30"></rect>
    </defs>
    <g id="Page-1-Copy" stroke="none" stroke-width="1" fill="none" fill-rule="evenodd">
        <g id="icon_close">
            <mask id="mask-2" fill="white">
                <use xlink:href="#path-1"></use>
            </mask>
            <g id="Rectangle"></g>
            <path d="M15,3 C16.1045695,3 17,3.8954305 17,5 L17,13 L25,13 C26.1045695,13 27,13.8954305 27,15 C27,16.1045695 26.1045695,17 25,17 L17,17 L17,25 C17,26.1045695 16.1045695,27 15,27 C13.8954305,27 13,26.1045695 13,25 L13,17 L5,17 C3.8954305,17 3,16.1045695 3,15 C3,13.8954305 3.8954305,13 5,13 L13,13 L13,5 C13,3.8954305 13.8954305,3 15,3 Z" id="Combined-Shape" fill="#000000" mask="url(#mask-2)" transform="translate(15.000000, 15.000000) rotate(45.000000) translate(-15.000000, -15.000000) "></path>
        </g>
    </g>
</svg>