<?xml version="1.0" encoding="UTF-8"?>
<svg width="40px" height="40px" viewBox="0 0 40 40" version="1.1" xmlns="http://www.w3.org/2000/svg" xmlns:xlink="http://www.w3.org/1999/xlink">
    <!-- Generator: Sketch 58 (84663) - https://sketch.com -->
    <title>icon_nav_main_s</title>
    <desc>Created with Sketch.</desc>
    <g id="Page-1-Copy" stroke="none" stroke-width="1" fill="none" fill-rule="evenodd">
        <g id="icon_nav_main_s">
            <circle id="Oval" fill="#9ED5FF" cx="20" cy="20" r="18"></circle>
            <path d="M11,17 L29,17 L29,23 C29,26.3137085 26.3137085,29 23,29 L17,29 C13.6862915,29 11,26.3137085 11,23 L11,17 L11,17 Z" id="Rectangle" fill="#3AAAFF"></path>
            <path d="M20,0 C31.045695,0 40,8.954305 40,20 C40,31.045695 31.045695,40 20,40 C18.8954305,40 18,39.1045695 18,38 L18,38 L18,31 L17,31 C12.581722,31 9,27.418278 9,23 L9,17 C9,15.8954305 9.8954305,15 11,15 L14,15 L14,12 C14,10.8954305 14.8954305,10 16,10 C17.1045695,10 18,10.8954305 18,12 L18,15 L22,15 L22,12 C22,10.8954305 22.8954305,10 24,10 C25.1045695,10 26,10.8954305 26,12 L26,15 L29,15 C30.1045695,15 31,15.8954305 31,17 L31,23 C31,27.418278 27.418278,31 23,31 L22,31 L22.0007904,35.8761139 C29.8930309,34.8915668 36,28.1589629 36,20 C36,11.163444 28.836556,4 20,4 C11.163444,4 4,11.163444 4,20 C4,23.2692677 4.98041797,26.3868518 6.78626395,29.0250899 C7.4101697,29.9365806 7.17703598,31.1812654 6.26554523,31.8051712 C5.35405447,32.4290769 4.10936968,32.1959432 3.48546393,31.2844525 C1.22768394,27.9859645 0,24.0821112 0,20 C0,8.954305 8.954305,0 20,0 Z M27,19 L13,19 L13,23 C13,25.209139 14.790861,27 17,27 L23,27 C25.209139,27 27,25.209139 27,23 L27,19 Z" id="Combined-Shape" fill="#000000" fill-rule="nonzero"></path>
        </g>
    </g>
</svg>