<?xml version="1.0" encoding="UTF-8"?>
<svg width="64px" height="64px" viewBox="0 0 64 64" version="1.1" xmlns="http://www.w3.org/2000/svg" xmlns:xlink="http://www.w3.org/1999/xlink">
    <!-- Generator: Sketch 58 (84663) - https://sketch.com -->
    <title>icon_coupon</title>
    <desc>Created with Sketch.</desc>
    <g id="Page-1-Copy" stroke="none" stroke-width="1" fill="none" fill-rule="evenodd">
        <g id="icon_coupon">
            <rect id="Rectangle" x="0" y="0" width="64" height="64"></rect>
            <g id="Group-9" transform="translate(3.000000, 5.000000)">
                <g id="Group-8" transform="translate(0.000000, 14.000000)">
                    <path d="M54,0 C56.209139,-4.05812251e-16 58,1.790861 58,4 L58,14 C54.6862915,14 52,16.6862915 52,20 C52,23.3137085 54.6862915,26 58,26 L58,36 C58,38.209139 56.209139,40 54,40 L4,40 C1.790861,40 2.705415e-16,38.209139 0,36 L0,26 L0,26 C3.3137085,26 6,23.3137085 6,20 C6,16.6862915 3.3137085,14 0,14 L0,4 C-2.705415e-16,1.790861 1.790861,4.05812251e-16 4,0 L54,0 Z" id="Combined-Shape" stroke="#000000" stroke-width="4" fill="#F5A623"></path>
                    <path d="M15,26 C16.1045695,26 17,26.8954305 17,28 L17,32 C17,33.1045695 16.1045695,34 15,34 C13.8954305,34 13,33.1045695 13,32 L13,28 C13,26.8954305 13.8954305,26 15,26 Z M15,16 C16.1045695,16 17,16.8954305 17,18 L17,22 C17,23.1045695 16.1045695,24 15,24 C13.8954305,24 13,23.1045695 13,22 L13,18 C13,16.8954305 13.8954305,16 15,16 Z M15,6 C16.1045695,6 17,6.8954305 17,8 L17,12 C17,13.1045695 16.1045695,14 15,14 C13.8954305,14 13,13.1045695 13,12 L13,8 C13,6.8954305 13.8954305,6 15,6 Z" id="Combined-Shape" fill="#000000"></path>
                    <path d="M31,28 C32.1045695,28 33,28.8954305 33,30 L33,32 C33,33.1045695 32.1045695,34 31,34 L23,34 C21.8954305,34 21,33.1045695 21,32 L21,30 C21,28.8954305 21.8954305,28 23,28 L31,28 Z M43,17 C44.1045695,17 45,17.8954305 45,19 L45,21 C45,22.1045695 44.1045695,23 43,23 L23,23 C21.8954305,23 21,22.1045695 21,21 L21,19 C21,17.8954305 21.8954305,17 23,17 L43,17 Z M37,6 C38.1045695,6 39,6.8954305 39,8 L39,10 C39,11.1045695 38.1045695,12 37,12 L23,12 C21.8954305,12 21,11.1045695 21,10 L21,8 C21,6.8954305 21.8954305,6 23,6 L37,6 Z" id="Combined-Shape" fill="#FFFFFF"></path>
                </g>
                <path d="M48.695,-0.256 L47.0602882,5.42412756 C46.4647163,7.49370414 44.3375322,8.72027085 42.2480141,8.1989581 L8.358,-0.256 L48.695,-0.256 Z" id="Combined-Shape" stroke="#000000" stroke-width="4" fill="#F9DA0D" stroke-linejoin="round" transform="translate(30.000000, 4.000000) scale(1, -1) translate(-30.000000, -4.000000) "></path>
            </g>
        </g>
    </g>
</svg>