<?xml version="1.0" encoding="UTF-8"?>
<svg width="36px" height="36px" viewBox="0 0 36 36" version="1.1" xmlns="http://www.w3.org/2000/svg" xmlns:xlink="http://www.w3.org/1999/xlink">
    <!-- Generator: Sketch 59.1 (86144) - https://sketch.com -->
    <title>icon_switch_site</title>
    <desc>Created with Sketch.</desc>
    <g id="Page-1-Copy" stroke="none" stroke-width="1" fill="none" fill-rule="evenodd">
        <g id="icon_switch_site">
            <circle id="Oval" stroke="#000000" stroke-width="4" cx="18" cy="18" r="16"></circle>
            <path d="M26.0040095,19 C27.108579,19 28.0040095,19.8954305 28.0040095,21 C28.0040095,22.1045695 27.108579,23 26.0040095,23 L26.0040095,23 L14.8324366,23 L15.4182231,23.5857864 C16.1992717,24.366835 16.1992717,25.633165 15.4182231,26.4142136 C14.6371745,27.1952621 13.3708445,27.1952621 12.5897959,26.4142136 L12.5897959,26.4142136 L8.58979595,22.4142136 C7.32986622,21.1542838 8.22219981,19 10.0040095,19 L10.0040095,19 Z M20.5857864,9.58578644 C21.366835,8.80473785 22.633165,8.80473785 23.4142136,9.58578644 L23.4142136,9.58578644 L27.4142136,13.5857864 C28.6741433,14.8457162 27.7818097,17 26,17 L26,17 L10,17 C8.8954305,17 8,16.1045695 8,15 C8,13.8954305 8.8954305,13 10,13 L10,13 L21.1715729,13 L20.5857864,12.4142136 C19.8047379,11.633165 19.8047379,10.366835 20.5857864,9.58578644 Z" id="Combined-Shape" fill="#000000" fill-rule="nonzero"></path>
        </g>
    </g>
</svg>