<?xml version="1.0" encoding="UTF-8"?>
<svg width="40px" height="40px" viewBox="0 0 40 40" version="1.1" xmlns="http://www.w3.org/2000/svg" xmlns:xlink="http://www.w3.org/1999/xlink">
    <!-- Generator: Sketch 59.1 (86144) - https://sketch.com -->
    <title>icon_alipay</title>
    <desc>Created with Sketch.</desc>
    <g id="Page-1-Copy" stroke="none" stroke-width="1" fill="none" fill-rule="evenodd">
        <g id="支付宝-copy">
            <rect id="Rectangle" x="0" y="0" width="40" height="40"></rect>
            <path d="M40.0000465,27.2182348 L27.1363988,22.9000657 L27.1363988,22.9000657 C27.9747201,21.5177516 28.6605529,20.0485429 29.1818543,18.5182247 L29.1818552,18.5182224 C29.7548285,17.0691269 30.1604852,15.5593517 30.3909464,14.0182171 L22.0636711,13.9454897 L22.0636711,11.1000333 L32.1545813,11.0273058 L32.1545813,9.01820584 L22.0545695,9.01820584 L22.0545695,4.4727318 L17.109095,4.4727318 L17.109095,9.01820584 L7.69998253,9.01820584 L7.69998253,11.027298 L17.109095,10.9636616 L17.109095,14.0182081 L9.56361751,14.0182081 L9.56361751,15.6091201 L25.1000028,15.6091201 L25.1000026,15.6091211 C24.9433286,16.5989465 24.6874943,17.5705023 24.336365,18.5091245 C23.7363643,20.1182162 23.1272738,21.5273077 23.1272738,21.5273077 C23.1272738,21.5273077 15.8545309,18.9727617 11.9908936,18.9727617 C8.12725241,18.9727618 3.47271965,20.5182167 3.01814881,25.0000344 C2.5636014,29.4818755 5.19996775,31.909144 8.89999159,32.8000434 L8.89999013,32.8000431 C12.3334472,33.5331612 15.9158967,33.0140145 19.0000019,31.3364047 L19.0000025,31.3364044 C21.2117629,30.0786568 23.2044214,28.4698034 24.9000094,26.572766 L39.9000268,33.8455089 L39.9000269,33.8455084 C39.2905262,37.3887117 36.2225265,39.9811796 32.6272841,39.99099 L7.40909065,39.99099 L7.40909085,39.99099 C3.32217203,39.9960051 0.00501973144,36.6869804 -3.06277167e-05,32.6000772 C-3.06277167e-05,32.5970447 -3.06277167e-05,32.5940122 -3.06277167e-05,32.5909797 L-3.06277167e-05,7.40915348 L-3.06277167e-05,7.40890782 C-0.00491338892,3.321989 3.30421691,0.00495388956 7.39111619,6.57783263e-05 C7.39718054,6.57783263e-05 7.40324488,6.57783263e-05 7.40930918,6.57783263e-05 L32.5911354,6.57783263e-05 L32.5911353,6.57783263e-05 C36.6780541,-0.00481657243 39.9950892,3.3043138 40.0000465,7.39121309 C40.0000465,7.39719532 40.0000465,7.40317759 40.0000465,7.40915983 L40.0000465,27.227347 L40.0000465,27.2182348 Z M21.2636576,24.7182319 C21.2636576,24.7182319 16.6363865,30.3455041 11.1909115,30.3455041 C5.74543637,30.3455041 4.59090378,27.6727744 4.59090378,25.7454987 C4.59090378,23.818223 5.72726838,21.7363925 10.3636449,21.4273296 C15.0000175,21.1182382 21.2727591,24.7091498 21.2727591,24.7091498 L21.2636576,24.7182319 Z" id="Shape" fill="#02A9F0" fill-rule="nonzero"></path>
        </g>
    </g>
</svg>