<?xml version="1.0" encoding="UTF-8"?>
<svg width="64px" height="64px" viewBox="0 0 64 64" version="1.1" xmlns="http://www.w3.org/2000/svg" xmlns:xlink="http://www.w3.org/1999/xlink">
    <!-- Generator: Sketch 58 (84663) - https://sketch.com -->
    <title>icon_money_freeze</title>
    <desc>Created with Sketch.</desc>
    <g id="Page-1-Copy" stroke="none" stroke-width="1" fill="none" fill-rule="evenodd">
        <g id="icon_money_freeze">
            <rect id="Rectangle" x="0" y="0" width="64" height="64"></rect>
            <g id="Group-9" transform="translate(4.000000, 4.000000)">
                <circle id="Oval" stroke="#000000" stroke-width="4" fill="#FFC41A" cx="27" cy="27" r="27"></circle>
                <circle id="Oval" stroke="#F8E71C" stroke-width="4" cx="27" cy="27" r="19"></circle>
                <polygon id="￥" fill="#000000" fill-rule="nonzero" points="36 23 36 27 30 27 30 30 36 30 36 34 30 34 30 42 24 42 24 34 18 34 18 30 24 30 24 27 18 27 18 23 23 23 16 12 22 12 27 20 33 12 39 12 31 23"></polygon>
            </g>
            <rect id="Rectangle" stroke="#000000" stroke-width="4" fill="#3AAAFF" x="26" y="36" width="34" height="24" rx="5"></rect>
            <path d="M43,23 C46.8659932,23 50,26.1340068 50,30 L50,36" id="Path" stroke="#000000" stroke-width="4" stroke-linecap="round" stroke-linejoin="round"></path>
            <path d="M45.2,39.4 L46.8,40.6 L43.999,44.333 L43.9983013,46.8 L46.1379614,45.5657752 L47.9704682,41.2757701 L49.8096987,42.0614108 L49.023558,43.8997752 L49.8900834,43.4006413 L50.8900834,45.1326921 L50.023558,45.631826 L52.0096987,45.8719226 L51.7704682,47.8575632 L47.1370954,47.298326 L44.9993013,48.532 L47.1389614,49.7671086 L51.7704682,49.2091035 L52.0096987,51.1947441 L50.024558,51.4331086 L50.8900834,51.9339746 L49.8900834,53.6660254 L49.024558,53.1651594 L49.8096987,55.0052559 L47.9704682,55.7908965 L46.1380954,51.4986594 L43.9983013,50.263 L43.999,52.732 L46.8,56.4666667 L45.2,57.6666667 L43.949,56 L42.049,56 L40.8,57.6666667 L39.2,56.4666667 L41.999,52.733 L41.9983013,50.264 L39.863348,51.497826 L38.0295318,55.7908965 L36.1903013,55.0052559 L37.008177,53.0885248 L36.058177,51.4430765 L33.9903013,51.1947441 L34.2295318,49.2091035 L38.862482,49.7662752 L40.9993013,48.532 L38.864348,47.2991594 L34.2295318,47.8575632 L33.9903013,45.8719226 L36.059177,45.6218581 L37.009177,43.9764098 L36.1903013,42.0614108 L38.0295318,41.2757701 L39.863482,45.5666086 L41.9983013,46.799 L41.999,44.332 L39.2,40.6 L40.8,39.4 L41.999,41 L42,40 L44,40 L43.999,41 L45.2,39.4 Z" id="Combined-Shape" fill="#FFFFFF" fill-rule="nonzero"></path>
        </g>
    </g>
</svg>