<?xml version="1.0" encoding="UTF-8"?>
<svg width="500px" height="300px" viewBox="0 0 500 300" version="1.1" xmlns="http://www.w3.org/2000/svg" xmlns:xlink="http://www.w3.org/1999/xlink">
    <!-- Generator: Sketch 58 (84663) - https://sketch.com -->
    <title>img_recharge</title>
    <desc>Created with Sketch.</desc>
    <g id="Page-1-Copy" stroke="none" stroke-width="1" fill="none" fill-rule="evenodd">
        <g id="img_recharge">
            <rect id="Rectangle" x="0" y="0" width="500" height="300"></rect>
            <g id="Group-3" transform="translate(78.000000, 28.000000)">
                <path d="M244,127 C250.627417,127 256,132.372583 256,139 C256,143.920355 253.038666,148.149053 248.801061,150.001032 L270,150 C276.627417,150 282,155.372583 282,162 C282,168.627417 276.627417,174 270,174 L316,174 C322.627417,174 328,179.372583 328,186 C328,192.627417 322.627417,198 316,198 L291,198 C297.627417,198 303,203.372583 303,210 C303,216.627417 297.627417,222 291,222 L273.804054,222.000277 C278.04006,223.852938 281,228.080804 281,233 C281,239.627417 275.627417,245 269,245 L69,245 C62.372583,245 57,239.627417 57,233 C57,228.080804 59.9599397,223.852938 64.1959456,222.000277 L38,222 C31.372583,222 26,216.627417 26,210 C26,203.372583 31.372583,198 38,198 L53,198 C46.372583,198 41,192.627417 41,186 C41,179.372583 46.372583,174 53,174 L28,174 C21.372583,174 16,168.627417 16,162 C16,155.372583 21.372583,150 28,150 L72.198939,150.001032 C67.9613342,148.149053 65,143.920355 65,139 C65,132.372583 70.372583,127 77,127 L244,127 Z" id="Combined-Shape" fill="#F0F0F0"></path>
                <g id="Group" fill="#D9D9D9">
                    <path d="M72,44 C73.1045695,44 74,44.8954305 74,46 L73.999,49.999 L78,50 C79.1045695,50 80,50.8954305 80,52 C80,53.1045695 79.1045695,54 78,54 L73.999,53.999 L74,58 C74,59.1045695 73.1045695,60 72,60 C70.8954305,60 70,59.1045695 70,58 L69.999,53.999 L66,54 C64.8954305,54 64,53.1045695 64,52 C64,50.8954305 64.8954305,50 66,50 L69.999,49.999 L70,46 C70,44.8954305 70.8954305,44 72,44 Z" id="Combined-Shape"></path>
                    <path d="M336,119 C337.104569,119 338,119.895431 338,121 L337.999,124.999 L342,125 C343.104569,125 344,125.895431 344,127 C344,128.104569 343.104569,129 342,129 L337.999,128.999 L338,133 C338,134.104569 337.104569,135 336,135 C334.895431,135 334,134.104569 334,133 L333.999,128.999 L330,129 C328.895431,129 328,128.104569 328,127 C328,125.895431 328.895431,125 330,125 L333.999,124.999 L334,121 C334,119.895431 334.895431,119 336,119 Z" id="Combined-Shape-Copy-5" opacity="0.699999988"></path>
                    <path d="M5,51 C5.55228475,51 6,51.4477153 6,52 L6,54.999 L9,55 C9.55228475,55 10,55.4477153 10,56 C10,56.5522847 9.55228475,57 9,57 L6,56.999 L6,60 C6,60.5522847 5.55228475,61 5,61 C4.44771525,61 4,60.5522847 4,60 L4,56.999 L1,57 C0.44771525,57 6.76353751e-17,56.5522847 0,56 C-6.76353751e-17,55.4477153 0.44771525,55 1,55 L4,54.999 L4,52 C4,51.4477153 4.44771525,51 5,51 Z" id="Combined-Shape-Copy" opacity="0.699999988"></path>
                    <path d="M261,137 C261.552285,137 262,137.447715 262,138 L261.999,140.999 L265,141 C265.552285,141 266,141.447715 266,142 C266,142.552285 265.552285,143 265,143 L261.999,142.999 L262,146 C262,146.552285 261.552285,147 261,147 C260.447715,147 260,146.552285 260,146 L259.999,142.999 L257,143 C256.447715,143 256,142.552285 256,142 C256,141.447715 256.447715,141 257,141 L259.999,140.999 L260,138 C260,137.447715 260.447715,137 261,137 Z" id="Combined-Shape-Copy-7" opacity="0.5"></path>
                    <path d="M105,61 C105.552285,61 106,61.4477153 106,62 L105.999,65 L109,65 C109.552285,65 110,65.4477153 110,66 C110,66.5522847 109.552285,67 109,67 L105.999,67 L106,70 C106,70.5522847 105.552285,71 105,71 C104.447715,71 104,70.5522847 104,70 L103.999,67 L101,67 C100.447715,67 100,66.5522847 100,66 C100,65.4477153 100.447715,65 101,65 L103.999,65 L104,62 C104,61.4477153 104.447715,61 105,61 Z" id="Combined-Shape-Copy-4" opacity="0.699999988"></path>
                    <path d="M294,34 C294.552285,34 295,34.4477153 295,35 L294.999,37.999 L298,38 C298.552285,38 299,38.4477153 299,39 C299,39.5522847 298.552285,40 298,40 L294.999,39.999 L295,43 C295,43.5522847 294.552285,44 294,44 C293.447715,44 293,43.5522847 293,43 L292.999,39.999 L290,40 C289.447715,40 289,39.5522847 289,39 C289,38.4477153 289.447715,38 290,38 L292.999,37.999 L293,35 C293,34.4477153 293.447715,34 294,34 Z" id="Combined-Shape-Copy-6"></path>
                    <path d="M65,114 C65.5522847,114 66,114.447715 66,115 L65.999,116 L67,116 C67.5522847,116 68,116.447715 68,117 C68,117.552285 67.5522847,118 67,118 L65.999,118 L66,119 C66,119.552285 65.5522847,120 65,120 C64.4477153,120 64,119.552285 64,119 L63.999,118 L63,118 C62.4477153,118 62,117.552285 62,117 C62,116.447715 62.4477153,116 63,116 L63.999,116 L64,115 C64,114.447715 64.4477153,114 65,114 Z" id="Combined-Shape-Copy-3"></path>
                    <path d="M267,89 C267.552285,89 268,89.4477153 268,90 L267.999,91 L269,91 C269.552285,91 270,91.4477153 270,92 C270,92.5522847 269.552285,93 269,93 L267.999,93 L268,94 C268,94.5522847 267.552285,95 267,95 C266.447715,95 266,94.5522847 266,94 L265.999,93 L265,93 C264.447715,93 264,92.5522847 264,92 C264,91.4477153 264.447715,91 265,91 L265.999,91 L266,90 C266,89.4477153 266.447715,89 267,89 Z" id="Combined-Shape-Copy-8"></path>
                    <path d="M8.5,138 C8.77614237,138 9,138.223858 9,138.5 L9,139 L9.5,139 C9.77614237,139 10,139.223858 10,139.5 C10,139.776142 9.77614237,140 9.5,140 L9,140 L9,140.5 C9,140.776142 8.77614237,141 8.5,141 C8.22385763,141 8,140.776142 8,140.5 L8,140 L7.5,140 C7.22385763,140 7,139.776142 7,139.5 C7,139.223858 7.22385763,139 7.5,139 L8,139 L8,138.5 C8,138.223858 8.22385763,138 8.5,138 Z" id="Combined-Shape-Copy-2"></path>
                    <path d="M235.5,105 C235.776142,105 236,105.223858 236,105.5 L236,106 L236.5,106 C236.776142,106 237,106.223858 237,106.5 C237,106.776142 236.776142,107 236.5,107 L236,107 L236,107.5 C236,107.776142 235.776142,108 235.5,108 C235.223858,108 235,107.776142 235,107.5 L235,107 L234.5,107 C234.223858,107 234,106.776142 234,106.5 C234,106.223858 234.223858,106 234.5,106 L235,106 L235,105.5 C235,105.223858 235.223858,105 235.5,105 Z" id="Combined-Shape-Copy-11"></path>
                    <path d="M167.5,0 C167.776142,-5.07265313e-17 168,0.223857625 168,0.5 L168,1 L168.5,1 C168.776142,1 169,1.22385763 169,1.5 C169,1.77614237 168.776142,2 168.5,2 L168,2 L168,2.5 C168,2.77614237 167.776142,3 167.5,3 C167.223858,3 167,2.77614237 167,2.5 L167,2 L166.5,2 C166.223858,2 166,1.77614237 166,1.5 C166,1.22385763 166.223858,1 166.5,1 L167,1 L167,0.5 C167,0.223857625 167.223858,5.07265313e-17 167.5,0 Z" id="Combined-Shape-Copy-10"></path>
                </g>
                <g id="Group-5" transform="translate(107.000000, 58.000000)">
                    <rect id="Rectangle" stroke="#D9D9D9" stroke-width="4" fill="#F0F0F0" x="0" y="0" width="130" height="40" rx="4"></rect>
                    <rect id="Rectangle" fill="#D9D9D9" x="10" y="18" width="110" height="4" rx="2"></rect>
                    <path d="M20,20 L110,20 L110,136 C110,138.209139 108.209139,140 106,140 L24,140 C21.790861,140 20,138.209139 20,136 L20,20 L20,20 Z" id="Rectangle" stroke="#D9D9D9" stroke-width="4" fill="#FFFFFF"></path>
                    <path d="M45.5857864,53.5857864 C46.366835,52.8047379 47.633165,52.8047379 48.4142136,53.5857864 L48.4142136,53.5857864 L65,70.1715729 L81.5857864,53.5857864 C82.366835,52.8047379 83.633165,52.8047379 84.4142136,53.5857864 C85.1952621,54.366835 85.1952621,55.633165 84.4142136,56.4142136 L84.4142136,56.4142136 L69.828,71 L83,71 C84.1045695,71 85,71.8954305 85,73 C85,74.1045695 84.1045695,75 83,75 L67,75 L67,85 L83,85 C84.1045695,85 85,85.8954305 85,87 C85,88.1045695 84.1045695,89 83,89 L67,89 L67,105 C67,106.104569 66.1045695,107 65,107 C63.8954305,107 63,106.104569 63,105 L63,89 L47,89 C45.8954305,89 45,88.1045695 45,87 C45,85.8954305 45.8954305,85 47,85 L63,85 L63,75 L47,75 C45.8954305,75 45,74.1045695 45,73 C45,71.8954305 45.8954305,71 47,71 L60.171,71 L45.5857864,56.4142136 C44.8458457,55.6742728 44.8069014,54.4987886 45.4689537,53.7130012 Z" id="Combined-Shape" fill="#D8D8D8"></path>
                    <circle id="Oval" stroke="#D9D9D9" stroke-width="4" fill="#FFFFFF" cx="110" cy="122" r="18"></circle>
                    <polyline id="Path-3" stroke="#D9D9D9" stroke-width="4" stroke-linecap="round" stroke-linejoin="round" points="100 120 108 128 120 116"></polyline>
                </g>
            </g>
        </g>
    </g>
</svg>