<?xml version="1.0" encoding="UTF-8"?>
<svg width="380px" height="130px" viewBox="0 0 380 130" version="1.1" xmlns="http://www.w3.org/2000/svg" xmlns:xlink="http://www.w3.org/1999/xlink">
    <!-- Generator: Sketch 58 (84663) - https://sketch.com -->
    <title>img_bg_popup_coupon</title>
    <desc>Created with Sketch.</desc>
    <g id="Page-1-Copy" stroke="none" stroke-width="1" fill="none" fill-rule="evenodd">
        <path d="M372,0 C375.367667,-6.18630306e-16 378.249321,2.08086526 379.429346,5.02697886 C376.383194,5.31428492 374,7.8788301 374,11 C374,14.3137085 376.686292,17 380,17 L380,17 L380,23 C376.686292,23 374,25.6862915 374,29 C374,32.3137085 376.686292,35 380,35 L380,35 L380,41 C376.686292,41 374,43.6862915 374,47 C374,50.3137085 376.686292,53 380,53 L380,53 L380,59 C376.686292,59 374,61.6862915 374,65 C374,68.3137085 376.686292,71 380,71 L380,71 L380,77 C376.686292,77 374,79.6862915 374,83 C374,86.3137085 376.686292,89 380,89 L380,89 L380,95 C376.686292,95 374,97.6862915 374,101 C374,104.313708 376.686292,107 380,107 L380,107 L380,113 C376.686292,113 374,115.686292 374,119 C374,122.12117 376.383194,124.685715 379.429143,124.973197 C378.249321,127.919135 375.367667,130 372,130 L8,130 C3.581722,130 5.41083001e-16,126.418278 0,122 L0,75 C5.5228475,75 10,70.5228475 10,65 C10,59.4771525 5.5228475,55 0,55 L0,8 C-5.41083001e-16,3.581722 3.581722,8.11624501e-16 8,0 L372,0 Z" id="img_bg_popup_coupon" fill="#FF8CA8"></path>
    </g>
</svg>