<?xml version="1.0" encoding="UTF-8"?>
<svg width="200px" height="200px" viewBox="0 0 200 200" version="1.1" xmlns="http://www.w3.org/2000/svg" xmlns:xlink="http://www.w3.org/1999/xlink">
    <!-- Generator: Sketch 58 (84663) - https://sketch.com -->
    <title>img_logo</title>
    <desc>Created with Sketch.</desc>
    <g id="Page-1-Copy" stroke="none" stroke-width="1" fill="none" fill-rule="evenodd">
        <path d="M9,168 L31,188.073529 L25.8413793,189 L15.5241379,179.426471 L9,168 Z M190.398374,168 L183.874236,179.426471 L173.556995,189 L168.398374,188.073529 L190.398374,168 Z M0,152 L4.29962547,152.777778 L41,186.066667 L35.6254682,187 L2.45692884,157.133333 L0,152 Z M200.243902,152 L197.786974,157.133333 L164.618434,187 L159.243902,186.066667 L195.944277,152.777778 L200.243902,152 Z M11,154 L18.8461538,155.38806 L51,184.228856 L45.6153846,185 L11,154 Z M189.162602,154 L154.547217,185 L149.162602,184.228856 L181.316448,155.38806 L189.162602,154 Z M26,157 L95,170.5 L88.0224719,179.034483 L55.7707865,184 L26,157 Z M173.739837,157 L143.969051,184 L111.717365,179.034483 L104.739837,170.5 L173.739837,157 Z M193,11 L100.271394,166 L4,11 L85.792176,97.1793855 C85.2326775,103.670175 85.1299881,108.38111 85.4841076,111.31219 C87.4319877,127.434974 93.801956,136.351833 100.271394,136.351833 C106.740831,136.351833 112.974152,127.719772 114.442543,111.31219 C114.690872,108.537396 114.456997,104.023562 113.740917,97.7706874 L113.672372,97.1793855 L193,11 Z" id="Combined-Shape" fill="#FF003F"></path>
    </g>
</svg>